<svg width="844" height="408" viewBox="0 0 844 408" fill="none" xmlns="http://www.w3.org/2000/svg">
<rect x="339" y="172" width="156" height="64" rx="24" fill="url(#paint0_linear_484_3898)"/>
<path d="M396.26 209H398.1L401.62 197H401.66L405.16 209H406.98L411.14 194.84H409.38L406.1 206.6H406.06L402.6 194.84H400.72L397.24 206.6H397.2L393.98 194.84H392.12L396.26 209ZM410.865 204.32C410.865 207.24 412.985 209.24 415.865 209.24C418.745 209.24 420.865 207.24 420.865 204.32C420.865 201.4 418.745 199.4 415.865 199.4C412.985 199.4 410.865 201.4 410.865 204.32ZM412.545 204.32C412.545 202.36 413.845 200.84 415.865 200.84C417.885 200.84 419.185 202.36 419.185 204.32C419.185 206.28 417.885 207.8 415.865 207.8C413.845 207.8 412.545 206.28 412.545 204.32ZM431.04 199.64H429.36L426.58 206.98H426.54L423.62 199.64H421.8L425.62 209H427.34L431.04 199.64ZM439.708 206.38C438.968 207.32 438.068 207.8 436.728 207.8C435.028 207.8 433.788 206.42 433.668 204.8H441.228V204.3C441.228 201.2 439.428 199.4 436.788 199.4C434.028 199.4 431.988 201.42 431.988 204.32C431.988 207.04 433.788 209.24 436.728 209.24C438.468 209.24 439.788 208.72 440.888 207.3L439.708 206.38ZM433.668 203.48C433.868 201.9 435.008 200.84 436.728 200.84C438.448 200.84 439.488 201.9 439.548 203.48H433.668Z" fill="white"/>
<rect x="688.5" y="344.5" width="155" height="63" rx="5.5" stroke="#60A5FA"/>
<path d="M728 381H733.44C736.22 381 740.38 379.14 740.38 373.92C740.38 368.7 736.22 366.84 733.44 366.84H728V381ZM729.68 368.4H732.88C736.12 368.4 738.58 370.04 738.58 373.92C738.58 377.8 736.12 379.44 732.88 379.44H729.68V368.4ZM742.604 381H744.164V376.44C744.164 374.3 745.004 372.96 746.904 372.96C747.184 372.96 747.484 373 747.744 373.08L747.844 371.5C747.624 371.42 747.404 371.4 747.204 371.4C745.664 371.4 744.504 372.26 744.084 373.18H744.044C744.044 372.66 744.004 372.14 744.004 371.64H742.524C742.524 372.26 742.604 373 742.604 373.86V381ZM748.544 376.32C748.544 379.24 750.664 381.24 753.544 381.24C756.424 381.24 758.544 379.24 758.544 376.32C758.544 373.4 756.424 371.4 753.544 371.4C750.664 371.4 748.544 373.4 748.544 376.32ZM750.224 376.32C750.224 374.36 751.524 372.84 753.544 372.84C755.564 372.84 756.864 374.36 756.864 376.32C756.864 378.28 755.564 379.8 753.544 379.8C751.524 379.8 750.224 378.28 750.224 376.32ZM760.679 385.56H762.239V379.34H762.279C762.859 380.4 764.199 381.24 765.879 381.24C768.499 381.24 770.559 379.12 770.559 376.32C770.559 373.48 768.579 371.4 765.639 371.4C764.279 371.4 763.139 372 762.279 373H762.239V371.64H760.679V385.56ZM762.239 376.32C762.239 374.36 763.539 372.84 765.559 372.84C767.579 372.84 768.879 374.36 768.879 376.32C768.879 378.28 767.579 379.8 765.559 379.8C763.539 379.8 762.239 378.28 762.239 376.32ZM772.705 381H774.265V379.34H774.305C774.885 380.4 776.225 381.24 777.905 381.24C780.525 381.24 782.585 379.12 782.585 376.32C782.585 373.48 780.605 371.4 777.665 371.4C776.305 371.4 775.165 372 774.305 373H774.265V365.88H772.705V381ZM774.265 376.32C774.265 374.36 775.565 372.84 777.585 372.84C779.605 372.84 780.905 374.36 780.905 376.32C780.905 378.28 779.605 379.8 777.585 379.8C775.565 379.8 774.265 378.28 774.265 376.32ZM784.272 376.32C784.272 379.24 786.392 381.24 789.272 381.24C792.152 381.24 794.272 379.24 794.272 376.32C794.272 373.4 792.152 371.4 789.272 371.4C786.392 371.4 784.272 373.4 784.272 376.32ZM785.952 376.32C785.952 374.36 787.252 372.84 789.272 372.84C791.292 372.84 792.592 374.36 792.592 376.32C792.592 378.28 791.292 379.8 789.272 379.8C787.252 379.8 785.952 378.28 785.952 376.32ZM795.067 381H797.007L799.927 376.96L802.887 381H804.947L801.087 375.96L804.307 371.64H802.407L800.067 375L797.587 371.64H795.547L798.907 375.96L795.067 381Z" fill="white"/>
<rect x="0.5" y="344.5" width="155" height="63" rx="5.5" stroke="#60A5FA"/>
<path d="M49.26 381H50.94V369.24H50.98L59.18 381H61.3V366.84H59.62V378.6H59.58L51.38 366.84H49.26V381ZM63.8064 376.32C63.8064 379.24 65.9264 381.24 68.8064 381.24C71.6864 381.24 73.8064 379.24 73.8064 376.32C73.8064 373.4 71.6864 371.4 68.8064 371.4C65.9264 371.4 63.8064 373.4 63.8064 376.32ZM65.4864 376.32C65.4864 374.36 66.7864 372.84 68.8064 372.84C70.8264 372.84 72.1264 374.36 72.1264 376.32C72.1264 378.28 70.8264 379.8 68.8064 379.8C66.7864 379.8 65.4864 378.28 65.4864 376.32ZM81.1414 371.64H78.3814V368.98H76.8214V371.64H74.7814V372.96H76.8214V378.1C76.8214 380.04 77.1814 381.24 79.4014 381.24C79.9814 381.24 80.6814 381.14 81.2214 380.9L81.1614 379.48C80.7414 379.7 80.2414 379.8 79.7814 379.8C78.4014 379.8 78.3814 378.84 78.3814 377.64V372.96H81.1414V371.64ZM82.9927 381H84.5527V371.64H82.9927V381ZM82.6327 367.98C82.6327 368.64 83.1127 369.12 83.7727 369.12C84.4327 369.12 84.9127 368.64 84.9127 367.98C84.9127 367.36 84.4127 366.84 83.7727 366.84C83.1327 366.84 82.6327 367.36 82.6327 367.98ZM86.9173 376.32C86.9173 379.24 89.0373 381.24 91.9173 381.24C94.7973 381.24 96.9173 379.24 96.9173 376.32C96.9173 373.4 94.7973 371.4 91.9173 371.4C89.0373 371.4 86.9173 373.4 86.9173 376.32ZM88.5973 376.32C88.5973 374.36 89.8973 372.84 91.9173 372.84C93.9373 372.84 95.2373 374.36 95.2373 376.32C95.2373 378.28 93.9373 379.8 91.9173 379.8C89.8973 379.8 88.5973 378.28 88.5973 376.32ZM99.1323 381H100.692V376.44C100.692 374.3 101.572 372.84 103.592 372.84C105.052 372.84 105.732 373.82 105.732 375.38V381H107.292V375.22C107.292 372.96 106.192 371.4 103.732 371.4C102.192 371.4 101.032 372.26 100.612 373.18H100.572C100.572 372.66 100.532 372.14 100.532 371.64H99.0523C99.0523 372.26 99.1323 373 99.1323 373.86V381Z" fill="white"/>
<rect x="688.5" y="0.5" width="155" height="63" rx="5.5" stroke="#60A5FA"/>
<path d="M740.26 37H741.94V30.64H748.54V29.08H741.94V24.4H749.04V22.84H740.26V37ZM751.033 37H752.593V27.64H751.033V37ZM750.673 23.98C750.673 24.64 751.153 25.12 751.813 25.12C752.473 25.12 752.953 24.64 752.953 23.98C752.953 23.36 752.453 22.84 751.813 22.84C751.173 22.84 750.673 23.36 750.673 23.98ZM764.838 27.64H763.278V29.24H763.238C762.618 28 761.198 27.4 759.938 27.4C756.958 27.4 754.958 29.26 754.958 32.32C754.958 35.08 756.998 37.12 759.938 37.12C761.178 37.12 762.498 36.58 763.238 35.38H763.278V36.58C763.278 38.56 762.538 40.36 759.738 40.36C758.298 40.36 757.238 39.8 756.258 38.74L755.138 40.02C756.458 41.32 757.918 41.8 759.738 41.8C763.018 41.8 764.838 39.96 764.838 36.58V27.64ZM756.638 32.32C756.638 30.36 757.978 28.84 759.938 28.84C761.918 28.84 763.278 30.26 763.278 32.28C763.278 34.08 762.078 35.68 759.938 35.68C758.118 35.68 756.638 34.22 756.638 32.32ZM767.525 37H769.085V32.44C769.085 30.3 769.965 28.84 771.985 28.84C773.265 28.84 773.785 29.64 773.785 31.7V37H775.345V31.6C775.345 29.92 776.445 28.84 777.765 28.84C779.585 28.84 780.045 30.1 780.045 31.4V37H781.605V31.32C781.605 28.9 780.725 27.4 778.045 27.4C776.625 27.4 775.765 28.08 775.085 29.18C774.785 28.54 774.145 27.4 772.125 27.4C770.585 27.4 769.425 28.26 769.005 29.18H768.965C768.965 28.66 768.925 28.14 768.925 27.64H767.445C767.445 28.26 767.525 29 767.525 29.86V37ZM785.216 29.86C785.956 29.18 786.996 28.84 787.996 28.84C789.456 28.84 790.316 29.54 790.316 30.9V31.18H789.716C787.416 31.18 783.816 31.36 783.816 34.46C783.816 36.28 785.396 37.24 787.296 37.24C788.716 37.24 789.756 36.56 790.376 35.6H790.416C790.416 36 790.416 36.58 790.516 37H792.016C791.936 36.52 791.876 35.92 791.876 35.38V31.36C791.876 28.72 790.716 27.4 787.956 27.4C786.596 27.4 785.196 27.86 784.236 28.84L785.216 29.86ZM790.316 32.5V33.1C790.276 34.62 789.356 35.92 787.556 35.92C786.376 35.92 785.496 35.48 785.496 34.3C785.496 33.04 786.776 32.5 788.756 32.5H790.316Z" fill="white"/>
<rect x="0.5" y="0.5" width="155" height="63" rx="5.5" stroke="#60A5FA"/>
<path d="M52.58 37H62.9V35.44H54.62L62.8 24.28V22.84H52.7V24.4H60.76L52.58 35.5V37ZM64.2244 32.32C64.2244 35.24 66.3444 37.24 69.2244 37.24C72.1044 37.24 74.2244 35.24 74.2244 32.32C74.2244 29.4 72.1044 27.4 69.2244 27.4C66.3444 27.4 64.2244 29.4 64.2244 32.32ZM65.9044 32.32C65.9044 30.36 67.2044 28.84 69.2244 28.84C71.2444 28.84 72.5444 30.36 72.5444 32.32C72.5444 34.28 71.2444 35.8 69.2244 35.8C67.2044 35.8 65.9044 34.28 65.9044 32.32ZM75.8994 32.32C75.8994 35.24 78.0194 37.24 80.8994 37.24C83.7794 37.24 85.8994 35.24 85.8994 32.32C85.8994 29.4 83.7794 27.4 80.8994 27.4C78.0194 27.4 75.8994 29.4 75.8994 32.32ZM77.5794 32.32C77.5794 30.36 78.8794 28.84 80.8994 28.84C82.9194 28.84 84.2194 30.36 84.2194 32.32C84.2194 34.28 82.9194 35.8 80.8994 35.8C78.8794 35.8 77.5794 34.28 77.5794 32.32ZM88.1144 37H89.6744V32.44C89.6744 30.3 90.5544 28.84 92.5744 28.84C93.8544 28.84 94.3744 29.64 94.3744 31.7V37H95.9344V31.6C95.9344 29.92 97.0344 28.84 98.3544 28.84C100.174 28.84 100.634 30.1 100.634 31.4V37H102.194V31.32C102.194 28.9 101.314 27.4 98.6344 27.4C97.2144 27.4 96.3544 28.08 95.6744 29.18C95.3744 28.54 94.7344 27.4 92.7144 27.4C91.1744 27.4 90.0144 28.26 89.5944 29.18H89.5544C89.5544 28.66 89.5144 28.14 89.5144 27.64H88.0344C88.0344 28.26 88.1144 29 88.1144 29.86V37Z" fill="white"/>
<rect x="344.5" y="0.5" width="155" height="63" rx="5.5" stroke="#60A5FA"/>
<path d="M403.26 37H404.94V25.12H404.98L410.06 37H411.08L416.16 25.12H416.2V37H417.88V22.84H415.44L410.6 33.94H410.56L405.76 22.84H403.26V37ZM421.065 37H422.625V27.64H421.065V37ZM420.705 23.98C420.705 24.64 421.185 25.12 421.845 25.12C422.505 25.12 422.985 24.64 422.985 23.98C422.985 23.36 422.485 22.84 421.845 22.84C421.205 22.84 420.705 23.36 420.705 23.98ZM425.529 37H427.089V32.44C427.089 30.3 427.929 28.96 429.829 28.96C430.109 28.96 430.409 29 430.669 29.08L430.769 27.5C430.549 27.42 430.329 27.4 430.129 27.4C428.589 27.4 427.429 28.26 427.009 29.18H426.969C426.969 28.66 426.929 28.14 426.929 27.64H425.449C425.449 28.26 425.529 29 425.529 29.86V37ZM431.469 32.32C431.469 35.24 433.589 37.24 436.469 37.24C439.349 37.24 441.469 35.24 441.469 32.32C441.469 29.4 439.349 27.4 436.469 27.4C433.589 27.4 431.469 29.4 431.469 32.32ZM433.149 32.32C433.149 30.36 434.449 28.84 436.469 28.84C438.489 28.84 439.789 30.36 439.789 32.32C439.789 34.28 438.489 35.8 436.469 35.8C434.449 35.8 433.149 34.28 433.149 32.32Z" fill="white"/>
<rect x="344.5" y="344.5" width="155" height="63" rx="5.5" stroke="#60A5FA"/>
<path d="M400.26 381H409.52V379.44H401.94V374.4H408.68V372.84H401.94V368.4H409.16V366.84H400.26V381ZM410.215 381H412.155L415.075 376.96L418.035 381H420.095L416.235 375.96L419.455 371.64H417.555L415.215 375L412.735 371.64H410.695L414.055 375.96L410.215 381ZM429.335 372.88C428.395 371.86 427.115 371.4 425.735 371.4C422.855 371.4 420.895 373.48 420.895 376.32C420.895 379.2 422.835 381.24 425.735 381.24C427.095 381.24 428.375 380.78 429.275 379.74L428.115 378.64C427.535 379.44 426.755 379.8 425.735 379.8C423.835 379.8 422.575 378.24 422.575 376.32C422.575 374.4 423.635 372.84 425.735 372.84C426.675 372.84 427.435 373.18 428.095 373.98L429.335 372.88ZM438.064 378.38C437.324 379.32 436.424 379.8 435.084 379.8C433.384 379.8 432.144 378.42 432.024 376.8H439.584V376.3C439.584 373.2 437.784 371.4 435.144 371.4C432.384 371.4 430.344 373.42 430.344 376.32C430.344 379.04 432.144 381.24 435.084 381.24C436.824 381.24 438.144 380.72 439.244 379.3L438.064 378.38ZM432.024 375.48C432.224 373.9 433.364 372.84 435.084 372.84C436.804 372.84 437.844 373.9 437.904 375.48H432.024ZM441.937 381H443.497V365.88H441.937V381Z" fill="white"/>
<path d="M785 333.717V296C785 284.954 776.046 276 765 276H78C66.9543 276 58 284.954 58 296L58 333.717" stroke="#60A5FA" stroke-width="2" stroke-linecap="round" stroke-dasharray="1 6"/>
<path d="M422.5 237V276" stroke="#60A5FA" stroke-width="2" stroke-linecap="round" stroke-dasharray="1 6"/>
<path d="M778 327L785 334L792 327" stroke="#60A5FA" stroke-width="2" stroke-linecap="round" stroke-linejoin="round"/>
<path d="M51 327L58 334L65 327" stroke="#60A5FA" stroke-width="2" stroke-linecap="round" stroke-linejoin="round"/>
<path fill-rule="evenodd" clip-rule="evenodd" d="M417 241C417 238.239 419.239 236 422 236C424.761 236 427 238.239 427 241C427 243.761 424.761 246 422 246C419.239 246 417 243.761 417 241Z" fill="#60A5FA"/>
<path d="M422 274.889V337.622" stroke="#60A5FA" stroke-width="2" stroke-linecap="round" stroke-dasharray="1 6"/>
<path d="M415 330.889L422 337.889L429 330.889" stroke="#60A5FA" stroke-width="2" stroke-linecap="round" stroke-linejoin="round"/>
<path d="M58 73.2826L58 111C58 122.046 66.9543 131 78 131L765 131C776.046 131 785 122.046 785 111L785 73.2826" stroke="#60A5FA" stroke-width="2" stroke-linecap="round" stroke-dasharray="1 6"/>
<path d="M420.5 171L420.5 131" stroke="#60A5FA" stroke-width="2" stroke-linecap="round" stroke-dasharray="1 6"/>
<path d="M65 80L58 73L51 80" stroke="#A1A1AA" stroke-width="2" stroke-linecap="round" stroke-linejoin="round"/>
<path d="M792 80L785 73L778 80" stroke="#A1A1AA" stroke-width="2" stroke-linecap="round" stroke-linejoin="round"/>
<path fill-rule="evenodd" clip-rule="evenodd" d="M426 167C426 169.761 423.761 172 421 172C418.239 172 416 169.761 416 167C416 164.239 418.239 162 421 162C423.761 162 426 164.239 426 167Z" fill="#60A5FA"/>
<path d="M420 132.111L420 69.3783" stroke="#60A5FA" stroke-width="2" stroke-linecap="round" stroke-dasharray="1 6"/>
<path d="M427 76.1113L420 69.1113L413 76.1113" stroke="#60A5FA" stroke-width="2" stroke-linecap="round" stroke-linejoin="round"/>
<defs>
<linearGradient id="paint0_linear_484_3898" x1="345.5" y1="178.5" x2="495" y2="229.5" gradientUnits="userSpaceOnUse">
<stop stop-color="#63B5FB"/>
<stop offset="0.494792" stop-color="#319DFA"/>
<stop offset="1" stop-color="#0685F1"/>
</linearGradient>
</defs>
</svg>
