<svg width="10" height="9" viewBox="0 0 10 9" fill="none" xmlns="http://www.w3.org/2000/svg">
<path d="M2.8866 1.05759C2.8866 1.64169 2.38032 2.11519 1.7558 2.11519C1.13128 2.11519 0.625 1.64169 0.625 1.05759C0.625 0.473501 1.13128 0 1.7558 0C2.38032 0 2.8866 0.473501 2.8866 1.05759Z" fill="black"/>
<path d="M0.779639 2.89256H2.71263V8.75H0.779639V2.89256Z" fill="black"/>
<path d="M5.82474 2.89256H3.89175V8.75H5.82474C5.82474 8.75 5.82474 6.90599 5.82474 5.75304C5.82474 5.06101 6.06104 4.36596 7.00387 4.36596C8.06938 4.36596 8.06297 5.27158 8.058 5.97318C8.05151 6.89028 8.06701 7.82616 8.06701 8.75H10V5.65857C9.98363 3.68461 9.46926 2.77505 7.77706 2.77505C6.77212 2.77505 6.14919 3.23129 5.82474 3.64406V2.89256Z" fill="black"/>
</svg>
